<svg width="13" height="13" viewBox="0 0 13 13" fill="none" xmlns="http://www.w3.org/2000/svg">
<path d="M5.59961 7.62405V3.12405H6.34961V6.87405H8.59961V7.62405H5.59961ZM1.82031 4.24319C1.33984 5.05569 1.09961 5.93265 1.09961 6.87405C1.09961 7.81155 1.33398 8.68265 1.80273 9.48734C2.27148 10.292 2.91016 10.9326 3.71875 11.4092C4.53125 11.8858 5.4082 12.1241 6.34961 12.1241C7.29102 12.1241 8.16797 11.8838 8.98047 11.4034C9.79297 10.9229 10.4316 10.2881 10.8965 9.49905C11.3652 8.70609 11.5996 7.83304 11.5996 6.87991C11.5996 5.92679 11.3633 5.04984 10.8906 4.24905C10.418 3.44827 9.78711 2.81155 8.99805 2.3389C8.18164 1.86234 7.29688 1.62405 6.34375 1.62405C5.39453 1.62405 4.52148 1.85843 3.72461 2.32718C2.93164 2.79593 2.29688 3.4346 1.82031 4.24319ZM1.15234 9.88577C0.617188 8.9639 0.349609 7.95999 0.349609 6.87405C0.349609 5.78812 0.617188 4.78616 1.15234 3.86819C1.6875 2.95023 2.41797 2.22171 3.34375 1.68265C4.26953 1.14359 5.27148 0.874054 6.34961 0.874054C7.42773 0.874054 8.42969 1.14359 9.35547 1.68265C10.2773 2.22171 11.0059 2.95023 11.541 3.86819C12.0801 4.79007 12.3496 5.79202 12.3496 6.87405C12.3496 7.95218 12.0801 8.95413 11.541 9.87991C11.002 10.8057 10.2734 11.5362 9.35547 12.0713C8.4375 12.6065 7.43555 12.8741 6.34961 12.8741C5.26367 12.8741 4.25977 12.6065 3.33789 12.0713C2.41602 11.5362 1.6875 10.8076 1.15234 9.88577Z" fill="#605E5C"/>
</svg>
